# xmcd
#
# Track frame offsets:
#	150
#	15277
#	30202
#	49762
#	68107
#	80760
#	95305
#	111965
#	126650
#	144892
#	162140
#	176677
#	194230
#
# Disc length: 2840 seconds
#
# Revision: 1
# Processed by: cddbd v1.4PL0 Copyright (c) Steve Scherf et al.
# Submitted via: audiograbber 1.80
#
DISCID=ab0b160d
DTITLE=Amy Rigby - The Sugar Tree
DYEAR=1900
DGENRE=
TTITLE0=Wait til I Get You Home
TTITLE1=Happy For You
TTITLE2=Rode Hard
TTITLE3=Let Me in a Little Bit
TTITLE4=You Get to Me
TTITLE5=Balls
TTITLE6=Magicians
TTITLE7=If You Won't Hang Around
TTITLE8=Angel after Hours
TTITLE9=Better Stay Gone
TTITLE10=Cynically Yours
TTITLE11=Stop Showing Up in My Dreams
TTITLE12=Sleepin' with the Moon
EXTD=
EXTT0=
EXTT1=
EXTT2=
EXTT3=
EXTT4=
EXTT5=
EXTT6=
EXTT7=
EXTT8=
EXTT9=
EXTT10=
EXTT11=
EXTT12=
PLAYORDER=
